PathFileType	4	(X/Y/Z)	s05c0202.trc
DataRate	CameraRate	NumFrames	NumMarkers	Units	OrigDataRate	OrigDataStartFrame	OrigNumFrames
200	200	4	49	mm	200	0	2000
Frame#	Time	racr			lacr			c7			jug			rlel			rdr			llel			ldr			s2			lic			ric			lasi			rasi			rpsi			lpsi			rgt			lgt			rth1			rth2			rth3			rth4			rlfc			rsh1			rsh2			rsh3			rsh4			rlmal			rmmal			rcal			rtoe			rmt5			lth1			lth2			lth4			lth3			llfc			lmfc			lsh1			lsh2			lsh3			lsh4			llmal			lmmal			lcal			ltoe			lmt5			SBIKE			LBIKE			RBIKE			
		X1	Y1	Z1	X2	Y2	Z2	X3	Y3	Z3	X4	Y4	Z4	X5	Y5	Z5	X6	Y6	Z6	X7	Y7	Z7	X8	Y8	Z8	X9	Y9	Z9	X10	Y10	Z10	X11	Y11	Z11	X12	Y12	Z12	X13	Y13	Z13	X14	Y14	Z14	X15	Y15	Z15	X16	Y16	Z16	X17	Y17	Z17	X18	Y18	Z18	X19	Y19	Z19	X20	Y20	Z20	X21	Y21	Z21	X22	Y22	Z22	X23	Y23	Z23	X24	Y24	Z24	X25	Y25	Z25	X26	Y26	Z26	X27	Y27	Z27	X28	Y28	Z28	X29	Y29	Z29	X30	Y30	Z30	X31	Y31	Z31	X32	Y32	Z32	X33	Y33	Z33	X34	Y34	Z34	X35	Y35	Z35	X36	Y36	Z36	X37	Y37	Z37	X38	Y38	Z38	X39	Y39	Z39	X40	Y40	Z40	X41	Y41	Z41	X42	Y42	Z42	X43	Y43	Z43	X44	Y44	Z44	X45	Y45	Z45	X46	Y46	Z46	X47	Y47	Z47	X48	Y48	Z48	X49	Y49	Z49	
0	0.0000	412.685884	1398.621245	-149.401302	418.498467	1404.928897	-441.178622	411.565570	1470.186067	-297.704576	383.848859	1314.588225	-295.370628	501.094156	1159.195481	-44.825224	683.463494	967.895742	-76.684896	466.744909	1144.338061	-551.949148	751.820731	1024.038453	-479.798339	-101.244745	1156.731669	-277.985270	43.122213	1166.652958	-423.055690	51.181517	1192.383714	-144.642399	94.461642	1117.824276	-389.174329	91.018894	1130.166727	-171.923939	-69.880832	1202.716315	-239.170194	-67.438391	1203.108346	-327.326500	8.860485	1064.562004	-104.694184	-27.833526	1061.113990	-446.706345	107.728241	1011.387260	-90.322730	195.908841	997.777017	-86.909393	263.800388	941.431669	-86.157016	210.039359	1029.681018	-100.065936	400.069087	864.322610	-109.913626	334.228658	774.298398	-89.400574	320.858974	687.846938	-101.377073	267.508765	619.790181	-107.268885	347.994656	678.567778	-127.021490	218.158562	495.218280	-121.566136	230.392642	528.509370	-198.229359	146.458586	461.258443	-166.962480	441.442183	447.832444	-159.957928	341.199451	421.359951	-94.752803	47.451629	940.592039	-468.241951	115.358795	889.025625	-473.029755	145.760694	908.400132	-461.666798	147.967143	803.862668	-476.661695	217.245229	669.885826	-450.900035	212.215363	661.093147	-341.152955	124.668020	579.269124	-467.893306	91.118560	499.236903	-453.117483	19.721335	447.032206	-447.769070	117.526500	482.875065	-430.786535	-49.961361	345.835678	-432.993332	-14.971185	367.694132	-359.117072	-119.896343	318.997721	-387.899618	159.753989	230.188783	-402.691758	47.152663	230.440024	-462.451821	-174.036253	899.136566	-278.778970	-53.529445	79.184098	-474.827837	-53.213853	78.816154	-77.167911	
1	0.0050	412.872634	1398.618176	-149.481966	418.647669	1404.804921	-441.214416	411.749131	1470.091943	-297.774581	383.963800	1314.521123	-295.387477	501.176965	1159.225693	-44.899652	683.496830	967.883619	-76.658255	466.690319	1144.252004	-552.057937	751.985212	1024.220702	-479.828275	-101.302652	1156.804253	-277.939586	43.126547	1166.617685	-423.005649	51.268048	1192.348115	-144.608961	94.465120	1117.782916	-389.122974	91.064624	1130.168320	-171.893751	-69.781160	1202.836658	-239.310482	-67.381795	1203.146218	-327.264568	8.689715	1064.547311	-104.757294	-27.823442	1061.162231	-446.684652	107.719326	1011.294786	-90.258794	195.868516	997.737543	-86.818961	263.758934	941.360451	-86.096757	210.023468	1029.653805	-99.936376	400.046219	864.328143	-109.855877	334.244317	774.262145	-89.360757	320.883370	687.820361	-101.354477	267.520219	619.779929	-107.253843	347.996756	678.557571	-126.978023	218.213908	495.183672	-121.563773	230.451798	528.495028	-198.239170	146.539333	461.193542	-166.991414	441.503802	447.769343	-159.964641	341.224576	421.315452	-94.743265	47.473190	940.633244	-468.226610	115.383203	889.060161	-473.000837	145.790059	908.437898	-461.618426	147.973265	803.925305	-476.620896	217.255362	669.915273	-450.853142	212.254874	661.142918	-341.125946	124.698497	579.336150	-467.862810	91.127592	499.317302	-453.123669	19.733202	447.113747	-447.764280	117.550360	482.940184	-430.757189	-49.967736	345.911804	-432.994624	-15.012327	367.749909	-359.102914	-119.900459	319.088737	-387.905994	159.725298	230.215405	-402.692094	47.130746	230.504221	-462.442903	-173.798032	899.139266	-278.673711	-53.571586	79.235993	-474.864376	-53.214419	78.826571	-77.151589	
2	0.0100	413.025388	1398.646195	-149.575793	418.782447	1404.688640	-441.309286	411.932045	1469.980768	-297.881055	384.080442	1314.478915	-295.405036	501.253830	1159.253317	-44.956199	683.514161	967.875519	-76.597336	466.612053	1144.153267	-552.195256	752.039284	1024.205121	-479.834560	-101.292999	1156.868453	-277.870917	43.146704	1166.603618	-422.958491	51.367297	1192.267976	-144.544562	94.460796	1117.754273	-389.059982	91.077646	1130.020005	-171.804479	-69.708517	1202.866775	-239.243876	-67.334445	1203.207786	-327.191560	8.662395	1064.516591	-104.724160	-27.829148	1061.208067	-446.669864	107.687679	1011.238349	-90.187727	195.823947	997.695143	-86.738073	263.748996	941.314468	-86.049078	209.983560	1029.608954	-99.821641	400.072760	864.367342	-109.800237	334.244960	774.255884	-89.314071	320.893389	687.811192	-101.306022	267.563565	619.736840	-107.224008	348.013195	678.558303	-126.958268	218.280595	495.155687	-121.556334	230.494128	528.479300	-198.232630	146.608504	461.177995	-166.997406	441.544832	447.703323	-159.960538	341.268092	421.266120	-94.744502	47.492216	940.658407	-468.205462	115.396805	889.090179	-472.962083	145.805801	908.493362	-461.580183	148.016153	803.985152	-476.608308	217.302483	669.986650	-450.836083	212.269440	661.192672	-341.085471	124.726412	579.396294	-467.845943	91.137002	499.387446	-453.102660	19.740349	447.190859	-447.752375	117.565572	483.017622	-430.751014	-49.961993	345.969439	-432.980741	-15.000248	367.791058	-359.106971	-119.917273	319.170217	-387.883903	159.704958	230.250618	-402.688743	47.105606	230.546564	-462.434227	-169.859272	900.071002	-275.538978	-53.563029	79.220600	-474.875295	-53.234094	78.814960	-77.159611	
3	0.0150	413.223563	1398.638217	-149.599162	418.897994	1404.549227	-441.329836	412.108575	1469.879438	-298.000979	384.230142	1314.411943	-295.441054	501.358639	1159.282942	-44.998884	683.602748	967.848902	-76.488789	466.539217	1144.056642	-552.319650	753.615081	1026.412505	-479.855541	-101.292418	1156.928971	-277.813797	43.167934	1166.589257	-422.895508	51.389960	1191.799036	-145.610547	94.296293	1118.231474	-389.057706	90.943906	1129.910412	-171.921314	-69.380944	1204.041819	-239.293830	-67.284469	1203.255852	-327.114687	8.943405	1064.268777	-104.635884	-27.826100	1061.255627	-446.643987	107.568764	1011.148302	-90.090305	195.807418	997.638381	-86.653780	263.727368	941.272435	-86.002881	209.979682	1029.571031	-99.709281	400.075556	864.372815	-109.757267	334.240906	774.236861	-89.272823	319.986490	686.924739	-101.884079	267.652646	619.607791	-107.191022	348.058668	678.551931	-126.920588	218.021970	495.638096	-121.250147	230.645002	528.401236	-198.222778	147.111302	460.808139	-167.330574	441.586413	447.625277	-159.959076	341.372957	421.180385	-94.787507	47.502532	940.692847	-468.184277	115.559435	888.616122	-472.634762	145.636240	908.443342	-461.305236	148.366723	804.218134	-476.191134	217.484994	669.919842	-450.318674	212.283751	661.236658	-341.067295	124.732533	579.489138	-467.830304	91.145805	499.496064	-453.124453	19.713564	447.272720	-447.756301	117.378735	483.473859	-430.339778	-50.027354	346.129750	-433.032598	-15.014675	367.855847	-359.087166	-119.929422	319.251065	-387.890780	159.681512	230.287048	-402.701796	47.082973	230.603055	-462.452580	-173.765218	899.138662	-278.688099	-53.574535	79.233774	-474.867431	-53.220490	78.822562	-77.161212	
